<?xml version="1.0" encoding="UTF-8" standalone="no"?><!DOCTYPE svg PUBLIC "-//W3C//DTD SVG 1.1//EN" "http://www.w3.org/Graphics/SVG/1.1/DTD/svg11.dtd"><!-- Generated by graphviz version 2.40.1 (20161225.0304)
 --><!-- Title: graph_name Pages: 1 --><svg xmlns="http://www.w3.org/2000/svg" xmlns:xlink="http://www.w3.org/1999/xlink" width="1088pt" height="98pt" viewBox="0.00 0.00 1088.18 98.00">
<g id="graph0" class="graph" transform="scale(1 1) rotate(0) translate(4 94)">
<title>graph_name</title>
<polygon fill="#ffffff" stroke="transparent" points="-4,4 -4,-94 1084.1806,-94 1084.1806,4 -4,4"/>
<!-- Test.HelloWorld.A.F() -->
<g id="node1" class="node">
<title>Test.HelloWorld.A.F()</title>
<ellipse fill="none" stroke="#000000" cx="334.3327" cy="-45" rx="99.597" ry="18"/>
<text text-anchor="middle" x="334.3327" y="-40.8" font-family="Times,serif" font-size="14.00" fill="#000000">Test.HelloWorld.A.F()</text>
</g>
<!-- Test.HelloWorld.A.F()&#45;&gt;Test.HelloWorld.A.F() -->
<g id="edge1" class="edge">
<title>Test.HelloWorld.A.F()-&gt;Test.HelloWorld.A.F()</title>
<path fill="none" stroke="#000000" d="M293.1999,-61.6641C284.0592,-71.625 297.7702,-81 334.3327,-81 357.7555,-81 371.8001,-77.1525 376.4664,-71.7682"/>
<polygon fill="#000000" stroke="#000000" points="379.9343,-71.2703 375.4655,-61.6641 372.9684,-71.9604 379.9343,-71.2703"/>
</g>
<!-- System.Console.WriteLine(char) -->
<g id="node2" class="node">
<title>System.Console.WriteLine(char)</title>
<ellipse fill="none" stroke="#000000" cx="608.8111" cy="-72" rx="138.8604" ry="18"/>
<text text-anchor="middle" x="608.8111" y="-67.8" font-family="Times,serif" font-size="14.00" fill="#000000">System.Console.WriteLine(char)</text>
</g>
<!-- Test.HelloWorld.A.F()&#45;&gt;System.Console.WriteLine(char) -->
<g id="edge2" class="edge">
<title>Test.HelloWorld.A.F()-&gt;System.Console.WriteLine(char)</title>
<path fill="none" stroke="#000000" d="M422.3119,-53.6544C443.2527,-55.7143 465.9576,-57.9477 488.0818,-60.1241"/>
<polygon fill="#000000" stroke="#000000" points="487.903,-63.6233 498.1976,-61.1191 488.5883,-56.6569 487.903,-63.6233"/>
</g>
<!-- Test.HelloWorld.A.H(string) -->
<g id="node3" class="node">
<title>Test.HelloWorld.A.H(string)</title>
<ellipse fill="none" stroke="#000000" cx="608.8111" cy="-18" rx="123.2921" ry="18"/>
<text text-anchor="middle" x="608.8111" y="-13.8" font-family="Times,serif" font-size="14.00" fill="#000000">Test.HelloWorld.A.H(string)</text>
</g>
<!-- Test.HelloWorld.A.F()&#45;&gt;Test.HelloWorld.A.H(string) -->
<g id="edge3" class="edge">
<title>Test.HelloWorld.A.F()-&gt;Test.HelloWorld.A.H(string)</title>
<path fill="none" stroke="#000000" d="M422.3119,-36.3456C445.7407,-34.041 471.3778,-31.5191 495.9392,-29.103"/>
<polygon fill="#000000" stroke="#000000" points="496.4121,-32.5735 506.0214,-28.1113 495.7267,-25.6071 496.4121,-32.5735"/>
</g>
<!-- System.Console.WriteLine(string?) -->
<g id="node4" class="node">
<title>System.Console.WriteLine(string?)</title>
<ellipse fill="none" stroke="#000000" cx="931.8359" cy="-18" rx="148.1896" ry="18"/>
<text text-anchor="middle" x="931.8359" y="-13.8" font-family="Times,serif" font-size="14.00" fill="#000000">System.Console.WriteLine(string?)</text>
</g>
<!-- Test.HelloWorld.A.H(string)&#45;&gt;System.Console.WriteLine(string?) -->
<g id="edge4" class="edge">
<title>Test.HelloWorld.A.H(string)-&gt;System.Console.WriteLine(string?)</title>
<path fill="none" stroke="#000000" d="M732.3156,-18C745.586,-18 759.2193,-18 772.829,-18"/>
<polygon fill="#000000" stroke="#000000" points="773.2253,-21.5001 783.2253,-18 773.2253,-14.5001 773.2253,-21.5001"/>
</g>
<!-- Test.HelloWorld.B.F() -->
<g id="node5" class="node">
<title>Test.HelloWorld.B.F()</title>
<ellipse fill="none" stroke="#000000" cx="99.2672" cy="-45" rx="99.0349" ry="18"/>
<text text-anchor="middle" x="99.2672" y="-40.8" font-family="Times,serif" font-size="14.00" fill="#000000">Test.HelloWorld.B.F()</text>
</g>
<!-- Test.HelloWorld.B.F()&#45;&gt;Test.HelloWorld.A.F() -->
<g id="edge5" class="edge">
<title>Test.HelloWorld.B.F()-&gt;Test.HelloWorld.A.F()</title>
<path fill="none" stroke="#000000" d="M198.6154,-45C206.9891,-45 215.489,-45 223.9395,-45"/>
<polygon fill="#000000" stroke="#000000" points="224.211,-48.5001 234.211,-45 224.211,-41.5001 224.211,-48.5001"/>
</g>
</g>
</svg>